<?xml version="1.0" encoding="utf-8"?>
<svg version="1.1" id="Layer_1" xmlns="http://www.w3.org/2000/svg" xmlns:xlink="http://www.w3.org/1999/xlink" x="0px" y="0px"
	 viewBox="0 0 473.6 320.7" style="enable-background:new 0 0 473.6 320.7;" xml:space="preserve">
<style type="text/css">
	.st0{fill:#2B3038;}
	.st1{fill:#D3D2CD;}
	.st2{opacity:0.5;}
	.st4{opacity:0.9;}
	.st3{fill:#D3D2CD;}
</style>
<rect class="st0" width="473.6" height="320.7"/>
<g>
	<path class="st1 st4" d="M22.8,69.6l3.4,1.5v0.5H3.5v-0.5l3.2-1.5c2.4-1,4.1-2.3,5.2-3.7c1.2-1.4,2.5-3.9,3.9-7.6l14.4-35.1
		c-0.6-1.6-1.3-3-2.1-4.2v-0.1c6.1-2,10.9-4.8,14.3-8.4h0.2l17.2,52.4c0.9,2.8,1.8,4.7,2.7,5.7c0.8,0.9,2,1.5,3.8,1.8l2.7,0.4v0.8
		H37.6v-0.8l2.7-0.3c2.6-0.3,3.9-1.2,3.9-2.4c0-0.8-0.2-1.8-0.6-3l-4.4-13.7H22.6l-0.8,2.5c-2.2,6.6-3.3,10.6-3.3,12
		c0,0.7,0.3,1.3,0.8,1.7C19.8,68.1,21,68.8,22.8,69.6z M38.5,49.1l-7.4-23.3l-7.7,23.3H38.5z"/>
	<path class="st1 st4" d="M84.6,92c-5.2,0-9.1-0.8-11.9-2.3c-2.8-1.5-4.1-3.6-4.1-6.2c0-3.5,3.1-6.2,9.4-8.1c-2-0.5-3.6-1.3-5-2.6
		c-1.9-2-2.8-4.3-2.8-6.8c0-3.3,2.9-6.5,8.6-9.7c-2.5-1.2-4.4-2.9-5.8-5c-1.4-2.1-2.1-4.5-2.1-7.1c0-4.2,1.7-7.6,5-10.3
		c3.2-2.7,7.5-4,13-4c1.6,0,4,0.2,7.1,0.7c3.1,0.5,5.2,0.7,6.3,0.7c2.4,0,5.7-0.8,10.1-2.3c1,1.3,1.5,2.8,1.5,4.3
		c0,1.3-0.4,2.3-1.1,3c-0.7,0.8-1.7,1.1-3,1.1c-1.8,0-4.1-1-7-3l-1.8-1.2l-0.3,0.3c3.8,3.4,5.7,6.9,5.7,10.5c0,4.3-1.6,7.7-4.8,10.4
		c-3.2,2.6-7.5,3.9-12.8,3.9c-3.4,0-6.4-0.6-8.8-1.7C78.6,58,78,59.3,78,60.7c0,0.9,0.3,1.5,1,1.9c0.7,0.4,1.9,0.6,3.7,0.6
		c1.8,0,3.6,0,5.4-0.1h6.8c7.7,0,12.7,1.1,14.9,3.3c1.7,1.7,2.6,3.9,2.6,6.6c0,3.5-1.6,6.8-4.8,10C101.5,89,93.9,92,84.6,92z
		 M80.4,75.7c-0.2,0-0.7-0.1-1.7-0.2c-0.5,1-0.7,2.1-0.7,3c0,2.4,1.3,4.4,3.8,5.7c2.5,1.4,6,2.1,10.3,2.1c8.9,0,13.4-2,13.4-5.9
		c0-1.2-0.3-2.2-1-2.9c-1.3-1.3-5.7-2-13-2c-2.1,0-4,0-5.7,0.1H80.4z M88.6,31.3c-1.3,0-2.4,1.1-3.3,3.4c-0.9,2.3-1.3,5.1-1.3,8.5
		c0,4.1,0.5,7.4,1.5,10c1,2.6,2.3,3.9,4,3.9c2.7,0,4-3.7,4-11.1c0-4.4-0.4-7.9-1.3-10.6C91.4,32.7,90.2,31.3,88.6,31.3z"/>
	<path class="st1 st4" d="M128.6,72.9c-2.8,0-5-0.8-6.7-2.5c-1.8-1.8-2.7-4.8-2.7-9V37.1c0-1.2-0.1-2-0.3-2.3c-0.2-0.3-0.7-0.7-1.5-1
		l-2.9-1.2V32l19.7-1.8l0.2,0.2c-0.2,2.3-0.3,4.7-0.3,7.3v19c0,3.5,0.4,5.7,1.3,6.4c0.8,0.8,1.9,1.2,3.4,1.2c1,0,2.5-0.4,4.4-1.1V37
		c0-1.2-0.1-2-0.3-2.3c-0.2-0.3-0.7-0.7-1.5-1l-2.9-1.2V32l19.7-1.8l0.2,0.2c-0.2,2.3-0.3,4.8-0.3,7.5v28.8c0,1,0.1,1.7,0.4,2
		c0.3,0.3,1,0.4,2.1,0.4h1.9l0.1,0.8L142.9,73l-0.2-0.2c0.2-1.9,0.3-3,0.3-3.3l0.2-5l-0.3-0.2C138,70.1,133.2,72.9,128.6,72.9z"/>
	<path class="st1 st4" d="M186.6,66.5c0-1.6-0.6-3-1.8-4.3c-1.2-1.3-3.3-2.8-6.3-4.6l-1.8-1.1c-1.3-0.8-1.9-1.2-2-1.2
		c-0.1,0-0.6-0.3-1.7-1c-0.8-0.5-1.8-1.4-3.1-2.5c-0.6-0.5-1.4-1.5-2.3-2.9c-0.5-0.7-0.8-1.3-0.9-1.8c-0.5-1.5-0.7-2.9-0.7-4.2
		c0-3.7,1.5-6.7,4.5-9.1c3.1-2.4,7-3.7,11.7-3.7c4.5,0,8.8,0.8,12.9,2.4c0.4,2.7,0.6,6.6,0.6,11.7l-0.5,0.2
		c-3.7-5.1-6.5-8.5-8.4-10.2c-1.9-1.6-3.6-2.3-5.1-2.3c-1.4,0-2.5,0.4-3.3,1.2c-0.8,0.8-1.2,1.9-1.2,3.1c0,1.5,0.5,2.7,1.5,3.9
		c1,1.1,2.7,2.4,5.1,3.7c1,0.6,2.9,1.7,5.5,3.2c1.4,1,2.8,2.1,4.2,3.2c2.8,2.4,4.3,5.5,4.3,9c0,4.2-1.6,7.5-4.9,10
		c-3.2,2.5-7.5,3.7-12.8,3.7c-5.2,0-9.9-0.8-13.9-2.5c-0.8-4.6-1.2-9.3-1.2-14.1l0.5-0.2c4.2,5.6,7.5,9.5,9.9,11.7
		c2.3,2.3,4.5,3.4,6.6,3.4C185.1,71.1,186.6,69.6,186.6,66.5z"/>
	<path class="st1 st4" d="M216.2,72.9c-8.3,0-12.4-4.1-12.4-12.4V37.8h-5.1v-1.1c7-5,13.7-10.5,20.2-16.3l0.3,0.1l-0.3,10.8h12.4l-1,6.5
		h-11.5v20.4c0,2.2,0.5,3.8,1.6,4.9c0.9,0.9,2.4,1.4,4.5,1.4c2.4,0,4.8-0.8,7-2.3l0.3,0.3C228.6,69.4,223.3,72.9,216.2,72.9z"/>
	<path class="st1 st4" d="M251.6,37.3v31.1c0,0.8,0.1,1.2,0.4,1.5c0.3,0.2,0.9,0.5,2,0.7l1.4,0.3v0.8h-22.5v-0.8l1.4-0.3
		c1-0.2,1.7-0.5,2-0.7c0.3-0.2,0.4-0.7,0.4-1.5V41.5c0-1.4-0.3-2.5-0.9-3.2l-2.4-3v-0.2l18.4-5.9l0.2,0.2
		C251.7,32.6,251.6,35.2,251.6,37.3z M260,9.7c0,2.7-1.6,4.9-4.7,6.6l-7.6,4.2l-9.3,5.2l-0.3-0.3c1.6-3.3,2.9-6.1,3.9-8.4l3.1-7.1
		l0.3-0.6c0.2-0.3,0.3-0.7,0.5-1.1c0.2-0.4,0.3-0.7,0.3-0.8c0.1-0.1,0.2-0.3,0.3-0.6s0.4-0.7,0.6-1c0.2-0.3,0.4-0.6,0.5-0.7
		c1.6-1.6,3.2-2.3,4.9-2.3c2,0,3.8,0.7,5.3,2.1C259.3,6.3,260,7.9,260,9.7z"/>
	<path class="st1 st4" d="M291.2,29.9c3,0,5.3,0.9,7,2.8c1.7,1.9,2.6,4.8,2.6,8.7v27.1c0,0.7,0.1,1.1,0.4,1.3c0.3,0.2,0.9,0.4,2,0.7
		l1.4,0.3v0.8h-21.8v-0.8l1.4-0.3c0.7-0.1,1.2-0.3,1.4-0.6c0.2-0.3,0.3-0.7,0.3-1.4V46.3c0-3.4-0.5-5.5-1.4-6.4
		c-1-0.8-2.2-1.2-3.7-1.2c-0.9,0-2.4,0.3-4.4,1v29c0,0.7,0.1,1.2,0.3,1.4c0.2,0.3,0.7,0.4,1.3,0.6l1.4,0.3v0.8h-21.8v-0.8l1.4-0.3
		c1-0.2,1.7-0.5,2-0.7c0.3-0.2,0.4-0.7,0.4-1.4V41.6c0-1.4-0.3-2.5-0.9-3.2l-2.4-3v-0.3l18.6-6l0.2,0.2c-0.3,3.9-0.4,6.3-0.4,7
		l-0.1,1.8l0.3,0.2C281.6,32.7,286.4,29.9,291.2,29.9z"/>
	<path class="st1 st4" d="M63.4,141.9c0,6.2-2.9,10.8-8.7,13.8c-3.8,1.9-9.3,2.9-16.4,2.9H7.9v-0.8l2.6-0.4c1.5-0.2,2.5-0.5,3-0.8
		c0.5-0.3,0.9-0.9,1.1-1.9c0.4-1.6,0.6-4.7,0.6-9.5V114c0-4.8-0.2-8-0.6-9.6c-0.2-0.9-0.6-1.6-1.1-1.9c-0.5-0.3-1.5-0.6-3-0.8
		l-2.6-0.4v-0.8h26c9.6,0,16.4,1.2,20.4,3.6c3.9,2.4,5.8,5.8,5.8,10.1c0,3-1.2,5.6-3.7,7.7c-2.4,2.1-5.6,3.6-9.4,4.3v0.3
		c5,0.9,9,2.7,11.9,5.3C62,134.3,63.4,137.7,63.4,141.9z M44.1,114.6c0-3.4-0.9-6.3-2.8-8.9c-2-2.6-4.9-3.8-8.9-3.7h-0.6
		c-0.2,1.3-0.3,3.5-0.3,6.5v19.2c4.2,0,7.4-1,9.5-3.1C43.1,122.5,44.1,119.2,44.1,114.6z M46.9,143.2c0-4.9-1.3-8.5-4-11
		c-2.7-2.5-6.5-3.5-11.4-3.1v17c0,4.7,0.2,7.7,0.5,9.1c0.2,1.3,1.5,1.9,3.9,1.9h0.2c3.2,0,5.9-1.3,7.8-3.9
		C45.9,150.6,46.9,147.3,46.9,143.2z"/>
	<path class="st1 st4" d="M73.2,123.4c4.4-4.4,9.8-6.5,16.4-6.5c6.6,0,11.9,2.1,15.8,6.3c3.9,4.2,5.9,9.2,5.9,15c0,6.2-2,11.3-6.1,15.4
		c-4.4,4.3-9.8,6.5-16.4,6.5c-6.7,0-11.9-2.1-15.8-6.3c-3.9-4.2-5.9-9.2-5.9-15C67.2,132.6,69.2,127.4,73.2,123.4z M89.9,158.4
		c1.5,0,2.7-1,3.7-2.9c1.5-3.1,2.3-8.3,2.3-15.6c0-5.9-0.6-10.9-1.9-15.1c-1.3-4.2-3-6.4-5.1-6.4c-1.5,0-2.7,1-3.7,2.9
		c-1.5,3.1-2.3,8.3-2.3,15.6c0,5.9,0.6,10.9,1.9,15.1C86,156.2,87.7,158.4,89.9,158.4z"/>
	<path class="st1 st4" d="M125.7,159.9c-2.8,0-5-0.8-6.7-2.5c-1.8-1.8-2.7-4.8-2.7-9v-24.4c0-1.2-0.1-2-0.3-2.3c-0.2-0.3-0.7-0.7-1.5-1
		l-2.9-1.2V119l19.7-1.8l0.2,0.2c-0.2,2.3-0.3,4.7-0.3,7.3v19c0,3.5,0.4,5.7,1.3,6.4c0.8,0.8,1.9,1.2,3.4,1.2c1,0,2.5-0.4,4.4-1.1
		V124c0-1.2-0.1-2-0.3-2.3c-0.2-0.3-0.7-0.7-1.5-1l-2.9-1.2V119l19.7-1.8l0.2,0.2c-0.2,2.3-0.3,4.8-0.3,7.5v28.8c0,1,0.1,1.7,0.4,2
		c0.3,0.3,1,0.4,2.1,0.4h1.9l0.1,0.8l-19.8,3.2l-0.2-0.2c0.2-1.9,0.3-3,0.3-3.3l0.2-5l-0.3-0.2C135.1,157.1,130.3,159.9,125.7,159.9
		z"/>
	<path class="st1 st4" d="M180.6,124.3v31.2c0,0.7,0.1,1.2,0.4,1.4c0.3,0.2,0.9,0.5,2,0.7l1.4,0.3v0.8h-22.5v-0.8l1.4-0.3
		c1-0.2,1.7-0.5,2-0.7c0.3-0.2,0.4-0.7,0.4-1.4v-27c0-1.4-0.3-2.5-0.9-3.2l-2.4-3v-0.2l18.4-5.9l0.2,0.2
		C180.7,119.6,180.6,122.2,180.6,124.3z M165,105.8c0-2,0.9-3.7,2.6-5.3c1.7-1.6,3.8-2.3,6.2-2.3c2.2,0,4,0.7,5.5,2.2
		c1.4,1.5,2.2,3.2,2.2,5.3s-0.8,3.9-2.4,5.4c-1.6,1.5-3.6,2.2-6,2.2c-2.3,0-4.2-0.7-5.7-2.1C165.8,109.7,165,107.9,165,105.8z"/>
	<path class="st1 st4" d="M205.4,105.2v50.4c0,0.6,0.1,1.1,0.4,1.3c0.3,0.2,0.9,0.5,2,0.7l1.4,0.3v0.8h-22.5v-0.8l1.4-0.3
		c1-0.2,1.7-0.5,2-0.7c0.3-0.2,0.4-0.7,0.4-1.4v-45.8c0-1.4-0.3-2.5-0.9-3.2l-2.4-3v-0.3l18.4-5.9l0.2,0.2
		C205.5,100.7,205.4,103.3,205.4,105.2z"/>
	<path class="st1 st4" d="M230.3,105.2v50.4c0,0.6,0.1,1.1,0.4,1.3c0.3,0.2,0.9,0.5,2,0.7l1.4,0.3v0.8h-22.5v-0.8l1.4-0.3
		c1-0.2,1.7-0.5,2-0.7c0.3-0.2,0.4-0.7,0.4-1.4v-45.8c0-1.4-0.3-2.5-0.9-3.2l-2.4-3v-0.3l18.4-5.9l0.2,0.2
		C230.4,100.7,230.3,103.3,230.3,105.2z"/>
	<path class="st1 st4" d="M256.9,116.9c5.2,0,9.2,1.2,12.2,3.7c3,2.5,4.5,5.7,4.5,9.7c0,1.2-0.1,2.1-0.3,2.7h-23.9c0,5.7,1.2,10,3.7,13
		c2.4,3,5.9,4.5,10.4,4.5c3.9,0,7.3-1.4,10.4-4.1l0.3,0.3c-4.2,8.9-10.6,13.3-19.3,13.3c-5.7,0-10.4-1.9-13.8-5.8
		c-3.5-3.9-5.3-8.7-5.3-14.5c0-6.6,2.1-12,6.3-16.4C246.1,119,251,116.9,256.9,116.9z M253.2,119.7c-2.5,2.5-3.8,6.5-3.8,12
		c6.9-0.3,10.9-0.6,11.9-1c-0.1-3.5-0.6-6.4-1.5-8.7s-2.2-3.5-3.9-3.5C254.9,118.5,254,118.9,253.2,119.7z"/>
	<path class="st1 st4" d="M293,159.9c-8.3,0-12.4-4.1-12.4-12.4v-22.7h-5.1v-1.1c7-5,13.7-10.5,20.2-16.3l0.3,0.1l-0.3,10.8h12.4l-1,6.5
		h-11.5v20.4c0,2.2,0.5,3.8,1.6,4.9c0.9,0.9,2.4,1.4,4.5,1.4c2.4,0,4.8-0.8,7-2.3l0.3,0.3C305.5,156.4,300.1,159.9,293,159.9z"/>
</g>
<g class="st2">
	<path class="st3" d="M31.8,218.1c-1-0.9-2.8-1.4-5.6-1.5l-4.6-0.1v10.1c0,2.7,0.1,4.5,0.3,5.4c0.1,0.5,0.4,0.9,0.7,1.1
		c0.3,0.2,1.1,0.3,2.1,0.4l2.6,0.2v0.4H10.3v-0.4l1.9-0.2c1-0.1,1.7-0.2,2-0.4c0.3-0.2,0.6-0.6,0.7-1.1c0.2-0.9,0.3-2.7,0.3-5.4
		v-21.1c0-2.7-0.1-4.5-0.3-5.4c-0.1-0.5-0.4-0.9-0.7-1.1c-0.3-0.2-1-0.3-2-0.4l-1.9-0.2V198h28.2l-0.2,8.8l-0.4,0.1
		c-1.2-2.9-2.1-4.7-2.8-5.5c-1.5-1.5-4.2-2.3-8.2-2.5l-5.3-0.2v16.9l4.2-0.2c1.7-0.1,3-0.2,3.8-0.4c0.8-0.2,1.5-0.6,2.1-1.2
		c0.8-0.8,1.4-1.9,1.7-3.3l0.3-1.4l0.4,0.1l-0.2,13.4l-0.4,0.1l-0.3-1.3C32.8,219.7,32.3,218.6,31.8,218.1z"/>
	<path class="st3" d="M48.7,234.8c-1.5,0-2.6-0.4-3.5-1.3c-0.6-0.6-1.1-1.3-1.3-2c-0.2-0.7-0.3-1.8-0.3-3.3v-15.4
		c0-0.8,0-1.3-0.1-1.5c-0.1-0.2-0.3-0.4-0.7-0.5l-2.1-0.7v-0.3l8-0.7l0.2,0.2c-0.1,1.4-0.2,3-0.2,4.6v10.8c0,3.1,0.4,5,1.1,5.7
		c0.7,0.7,1.8,1.1,3.3,1.1c1.3,0,2.8-0.5,4.6-1.6v-17.1c0-0.8,0-1.3-0.1-1.5c-0.1-0.2-0.3-0.4-0.7-0.5l-2.1-0.7v-0.3l8-0.7l0.2,0.2
		c-0.1,1.4-0.2,3-0.2,4.7v17.2c0,0.6,0.1,1.1,0.3,1.3c0.2,0.2,0.6,0.3,1.3,0.2l1.4-0.1l0.1,0.4l-8.4,2l-0.2-0.2
		c0.1-0.2,0.1-0.8,0.2-1.8l0.1-2.2l-0.2-0.1c-1.9,1.5-3.5,2.6-4.8,3.2C51.4,234.4,50.1,234.8,48.7,234.8z"/>
	<path class="st3" d="M76.2,198.8v33.5c0,0.4,0.1,0.7,0.2,0.9c0.2,0.1,0.6,0.3,1.3,0.3l0.8,0.1v0.4h-9.8v-0.4l0.8-0.1
		c0.7-0.1,1.1-0.2,1.3-0.3c0.2-0.1,0.2-0.4,0.2-0.9v-29.8c0-0.9-0.2-1.6-0.6-2.1l-1.7-1.6v-0.2l7.5-2.9l0.2,0.2
		C76.3,196.7,76.2,197.7,76.2,198.8z"/>
	<path class="st3" d="M89,198.8v33.5c0,0.4,0.1,0.7,0.2,0.9c0.2,0.1,0.6,0.3,1.3,0.3l0.8,0.1v0.4h-9.8v-0.4l0.8-0.1
		c0.7-0.1,1.1-0.2,1.3-0.3c0.2-0.1,0.2-0.4,0.2-0.9v-29.8c0-0.9-0.2-1.6-0.6-2.1l-1.7-1.6v-0.2l7.5-2.9l0.2,0.2
		C89.1,196.7,89,197.7,89,198.8z"/>
	<path class="st3" d="M106.1,230.1c0-1.1-0.4-2.1-1.1-2.9c-0.7-0.8-2-1.9-3.9-3.1c-2.3-1.5-4-2.9-4.9-4.1c-0.9-1.2-1.4-2.6-1.4-4.2
		c0-2,0.8-3.6,2.4-4.9c1.6-1.3,3.6-1.9,6.1-1.9c2.3,0,4.1,0.4,5.6,1.1c0.3,1.2,0.4,2.8,0.4,5l-0.5,0.1c-1.8-3.6-3.8-5.3-6-5.3
		c-1.2,0-2,0.3-2.7,0.9c-0.6,0.6-0.9,1.5-0.9,2.5c0,1.1,0.3,2,1,2.8c0.7,0.8,1.8,1.7,3.5,2.8c2.7,1.7,4.5,3.1,5.4,4.3
		c0.9,1.3,1.4,2.7,1.4,4.3c0,2.2-0.9,3.9-2.6,5.3s-3.9,2.1-6.5,2.1c-2.4,0-4.7-0.4-6.6-1.1c-0.6-2.6-0.9-4.9-0.9-6.9l0.5-0.1
		c2.2,4.8,4.9,7.2,8,7.2c1.1,0,2-0.3,2.7-1C105.8,232.2,106.1,231.2,106.1,230.1z"/>
	<path class="st3" d="M122.3,234.9c-2.2,0-3.9-0.6-5-1.7c-1.2-1.2-1.8-2.9-1.8-5.2v-15.2h-2.6v-1c2.9-2.4,5.5-5.1,8-8l0.3,0.2
		l-0.3,5.7h8.7l-0.6,3.2l-8.2-0.1v13.6c0,1.7,0.4,3,1.2,3.8c0.8,0.8,2,1.2,3.7,1.2c1.5,0,2.9-0.5,4.4-1.5l0.1,0.2
		C128.2,233.2,125.5,234.9,122.3,234.9z"/>
	<path class="st3" d="M139.7,212.2c-1.2,0-2.1,0.3-3,0.8l1.2,3.2c0,0.2-0.5,0.5-1.6,0.9c-1.1,0.4-1.9,0.6-2.5,0.6
		c-0.9,0-1.4-0.4-1.4-1.2c0-0.5,0.6-1.4,1.8-2.6c1.3-1.3,2.8-2.4,4.6-3.6c1.8-1.1,3.3-1.6,4.5-1.6c2,0,3.4,0.5,4.4,1.4
		c1.1,1.1,1.6,3.1,1.6,6v12.4c0,1.3,0.3,2.2,0.9,2.8c0.4,0.4,1,0.6,1.7,0.6c0.6,0,1.2-0.2,1.8-0.6l0.2,0.2c-0.5,0.9-1.2,1.6-2.2,2.3
		c-1,0.7-2,1-3,1c-1,0-2-0.3-2.8-1s-1.3-1.5-1.5-2.7l-0.2-0.1l-1,0.9c-1.2,1-2.2,1.7-3.1,2.1s-1.8,0.6-2.9,0.6
		c-1.4,0-2.6-0.5-3.5-1.5c-0.9-1-1.4-2.2-1.4-3.5c0-1.2,0.4-2.2,1.2-3c1-1,3.3-2.1,7-3.5l3.8-1.4v-5.2c0-1.4-0.4-2.5-1.1-3.2
		C142.6,212.6,141.4,212.2,139.7,212.2z M144.4,230.5v-8.1c-3,1.1-4.8,2-5.5,2.7c-0.7,0.7-1,1.5-1,2.5c0,1.1,0.3,2,1,2.7
		c0.7,0.7,1.5,1.1,2.6,1.1C142.5,231.4,143.5,231.1,144.4,230.5z"/>
	<path class="st3" d="M169.2,231.5c2.2,0,4.3-0.8,6.2-2.4l0.2,0.3c-2.4,3.7-5.6,5.6-9.5,5.6c-3.4,0-6.1-1.2-8.3-3.7
		c-2.1-2.4-3.1-5.4-3.1-9c0-3.7,1.2-6.8,3.7-9.5c2.5-2.6,5.7-3.9,9.7-3.9c2.3,0,4.1,0.4,5.4,1.1c1.4,0.7,2,1.7,2,2.9
		c0,0.6-0.3,1.3-0.8,1.8c-0.5,0.6-1.1,0.8-1.6,0.8c-0.5,0-1.2-0.4-1.9-1.4l-2.5-3c-0.4-0.5-0.8-0.8-1-1c-0.2-0.1-0.5-0.2-0.9-0.2
		c-1.7,0-3.2,0.9-4.6,2.8c-1.5,1.8-2.3,4.4-2.3,7.7c0,3.6,0.9,6.3,2.8,8.2C164.7,230.5,166.8,231.5,169.2,231.5z"/>
	<path class="st3" d="M195.6,212.8l-5.8,5.3l8.5,12.9c1,1.6,2.1,2.5,3.2,2.6l1,0.1v0.4h-11.8v-0.4l1.2-0.2c0.7-0.1,1-0.3,1.1-0.5
		c0-0.3-0.2-0.8-0.7-1.5l-5.1-7.6c-0.8-1.3-1.6-1.9-2.3-1.9h-0.1v10.4c0,0.4,0.1,0.7,0.2,0.9c0.2,0.1,0.6,0.3,1.3,0.3l0.8,0.1v0.4
		h-9.8v-0.4l0.8-0.1c0.7-0.1,1.1-0.2,1.3-0.3c0.2-0.1,0.2-0.4,0.2-0.9v-29.8c0-0.9-0.2-1.6-0.6-2.1l-1.7-1.6v-0.2l7.5-2.9l0.2,0.2
		c-0.1,0.6-0.2,1.6-0.2,2.8v22.7l3.3-3.2c1.7-1.6,3.1-3.1,4.2-4.5c1.3-1.5,1.9-2.4,1.9-2.8c0-0.3-0.7-0.5-2.2-0.8l-1.7-0.3v-0.4
		h11.2v0.4l-1.2,0.2c-1,0.2-1.8,0.5-2.4,0.8C197.3,211.3,196.6,211.9,195.6,212.8z"/>
	<path class="st3" d="M225.1,208.8c1.2,0,2.5,0.1,4,0.4v-6.6c0-0.9-0.2-1.6-0.6-2.1l-1.7-1.6v-0.2l7.5-2.9l0.2,0.2
		c-0.1,0.6-0.2,1.6-0.2,2.8v32.6c0,0.6,0.1,1.1,0.3,1.3c0.2,0.2,0.6,0.3,1.3,0.2l1.4-0.1l0.1,0.4l-8.5,2l-0.2-0.2
		c0.1-1.2,0.2-1.9,0.2-2.1l0.1-1.2l-0.2-0.1c-2.7,2.1-5.2,3.2-7.3,3.2c-2.8,0-5.2-1.1-7.1-3.4c-1.9-2.3-2.9-5.2-2.9-8.9
		c0-3.6,1.3-6.8,4-9.7C218.2,210.2,221.4,208.8,225.1,208.8z M223.8,209.6c-1.8,0-3.3,1.1-4.6,3.2c-1.4,2.2-2.1,5.1-2.1,8.6
		c0,3.3,0.8,5.9,2.4,7.8c1.6,1.9,3.4,2.9,5.5,2.9c1.4,0,2.8-0.4,4.1-1.2l0.1-12.6C229.4,212.5,227.6,209.6,223.8,209.6z"/>
	<path class="st3" d="M251.3,208.8c2.7,0,5,0.8,6.8,2.3c1.8,1.5,2.7,3.3,2.7,5.2c0,0.6-0.1,1.1-0.2,1.5l-16-0.1
		c-0.1,0.6-0.1,1.5-0.1,2.5c0,3.3,0.8,5.9,2.4,7.7c1.6,1.8,3.6,2.7,6.2,2.7c3.3,0,5.9-1.2,7.9-3.5l0.2,0.2c-0.9,2.3-2.3,4.1-4.2,5.5
		c-1.9,1.4-4,2.1-6.2,2.1c-3.5,0-6.3-1.2-8.3-3.7c-2.1-2.4-3.1-5.3-3.1-8.7c0-3.8,1.1-7,3.3-9.7
		C244.9,210.1,247.8,208.8,251.3,208.8z M247.3,211.4c-1.3,1.3-2.1,3.2-2.5,5.5l5.7-0.1c3.1-0.1,4.9-0.2,5.2-0.4
		c0.2-1.8-0.2-3.3-1-4.6c-0.9-1.3-2-2-3.5-2C249.8,209.7,248.5,210.3,247.3,211.4z"/>
	<path class="st3" d="M281.5,211.5c0-0.6-0.6-1.1-1.9-1.3l-1.1-0.2v-0.4h8.6v0.4l-1.1,0.3c-1.4,0.4-2.4,1.2-2.9,2.5l-8.8,22.3h-0.6
		l-8.9-22.4c-0.6-1.6-1.3-2.4-2-2.4l-1.7-0.2v-0.5h12.3v0.5l-2.3,0.2c-0.6,0.1-0.9,0.3-0.9,0.8c0,0.2,0.1,0.6,0.3,1.2l5.5,15.3h0.3
		l4-11.2C281.1,213.9,281.5,212.3,281.5,211.5z"/>
	<path class="st3" d="M298.1,208.8c2.7,0,5,0.8,6.8,2.3c1.8,1.5,2.7,3.3,2.7,5.2c0,0.6-0.1,1.1-0.2,1.5l-16-0.1
		c-0.1,0.6-0.1,1.5-0.1,2.5c0,3.3,0.8,5.9,2.4,7.7c1.6,1.8,3.6,2.7,6.2,2.7c3.3,0,5.9-1.2,7.9-3.5l0.2,0.2c-0.9,2.3-2.3,4.1-4.2,5.5
		s-4,2.1-6.2,2.1c-3.5,0-6.3-1.2-8.3-3.7c-2.1-2.4-3.1-5.3-3.1-8.7c0-3.8,1.1-7,3.3-9.7C291.6,210.1,294.5,208.8,298.1,208.8z
		 M294.1,211.4c-1.3,1.3-2.1,3.2-2.5,5.5l5.7-0.1c3.1-0.1,4.9-0.2,5.2-0.4c0.2-1.8-0.2-3.3-1-4.6c-0.9-1.3-2-2-3.5-2
		C296.5,209.7,295.3,210.3,294.1,211.4z"/>
	<path class="st3" d="M317.6,198.8v33.5c0,0.4,0.1,0.7,0.2,0.9c0.2,0.1,0.6,0.3,1.3,0.3l0.8,0.1v0.4h-9.8v-0.4l0.8-0.1
		c0.7-0.1,1.1-0.2,1.3-0.3c0.2-0.1,0.2-0.4,0.2-0.9v-29.8c0-0.9-0.2-1.6-0.6-2.1l-1.7-1.6v-0.2l7.5-2.9l0.2,0.2
		C317.7,196.7,317.6,197.7,317.6,198.8z"/>
	<path class="st3" d="M334.8,208.8c3.6,0,6.5,1.3,8.7,3.8c2.2,2.6,3.3,5.6,3.3,9c0,4-1.3,7.3-3.9,9.9c-2.3,2.3-5.2,3.4-8.7,3.4
		c-3.6,0-6.5-1.3-8.7-3.9c-2.2-2.5-3.3-5.5-3.3-9c0-4,1.3-7.3,3.9-9.9C328.3,209.9,331.2,208.8,334.8,208.8z M334.7,234
		c2.1,0,3.8-1.3,5-3.8c1-1.9,1.5-4.7,1.5-8.3c0-3.2-0.6-6-1.9-8.5c-1.3-2.5-3-3.7-5-3.7c-2.1,0-3.8,1.3-5,3.8
		c-1,1.9-1.5,4.7-1.5,8.3c0,3.2,0.6,6,1.9,8.5C331,232.8,332.6,234,334.7,234z"/>
	<path class="st3" d="M371.5,212.2c1.9,2.3,2.9,5.3,2.9,8.9c0,3.7-1.3,6.9-3.9,9.6c-2.7,2.8-5.9,4.2-9.7,4.2c-1.2,0-2.5-0.1-4-0.4
		v10c0,0.4,0.1,0.7,0.3,0.9c0.2,0.2,0.6,0.3,1.2,0.3l1.7,0.1v0.4h-10.7v-0.4l0.8-0.1c0.7-0.1,1.1-0.2,1.3-0.3
		c0.2-0.1,0.2-0.4,0.2-0.9v-29.4c0-0.9-0.2-1.6-0.6-2.1l-1.7-1.6v-0.2l7.7-2.9l0.2,0.2c-0.1,0.5-0.2,1.2-0.2,2.1l-0.1,1.2l0.2,0.1
		c2.7-2.1,5.2-3.2,7.3-3.2C367.2,208.8,369.6,209.9,371.5,212.2z M368.8,222.2c0-3.3-0.8-5.9-2.4-7.8c-1.6-1.9-3.5-2.9-5.6-2.9
		c-1.4,0-2.8,0.4-4.1,1.2l-0.1,12.6c-0.1,5.8,1.7,8.7,5.5,8.7c1.8,0,3.4-1.1,4.7-3.3C368.1,228.6,368.8,225.8,368.8,222.2z"/>
	<path class="st3" d="M389.5,208.8c2.7,0,5,0.8,6.8,2.3c1.8,1.5,2.7,3.3,2.7,5.2c0,0.6-0.1,1.1-0.2,1.5l-16-0.1
		c-0.1,0.6-0.1,1.5-0.1,2.5c0,3.3,0.8,5.9,2.4,7.7c1.6,1.8,3.6,2.7,6.2,2.7c3.3,0,5.9-1.2,7.9-3.5l0.2,0.2c-0.9,2.3-2.3,4.1-4.2,5.5
		s-4,2.1-6.2,2.1c-3.5,0-6.3-1.2-8.3-3.7c-2.1-2.4-3.1-5.3-3.1-8.7c0-3.8,1.1-7,3.3-9.7C383,210.1,385.9,208.8,389.5,208.8z
		 M385.5,211.4c-1.3,1.3-2.1,3.2-2.5,5.5l5.7-0.1c3.1-0.1,4.9-0.2,5.2-0.4c0.2-1.8-0.2-3.3-1-4.6c-0.9-1.3-2-2-3.5-2
		C387.9,209.7,386.6,210.3,385.5,211.4z"/>
	<path class="st3" d="M415.7,208.6c0.8,0,1.5,0.3,1.9,0.8c0.5,0.5,0.7,1.2,0.7,2c0,1.5-0.6,2.8-1.9,3.6c-2.2-1.2-3.7-1.8-4.5-1.8
		s-1.7,0.5-2.9,1.5v17.7c0,0.4,0.1,0.7,0.2,0.9c0.2,0.1,0.6,0.3,1.3,0.3l1.7,0.1v0.4h-10.7v-0.4l0.8-0.1c0.7-0.1,1.1-0.2,1.3-0.3
		c0.2-0.1,0.2-0.4,0.2-0.9v-17.2c0-0.9-0.2-1.6-0.6-2.1l-1.7-1.6v-0.2l7.7-2.9l0.2,0.2c-0.1,1.2-0.2,1.9-0.2,2.1l-0.2,3.1l0.2,0.1
		C411.5,210.3,413.6,208.6,415.7,208.6z"/>
	<path class="st3" d="M443.8,199.6c2.2,0,3.9,0.5,5.3,1.5c1.4,1,2.1,2.4,2.1,4.3c0,1.5-0.6,2.8-1.8,3.9c-1.2,1-2.4,1.8-3.7,2.3
		c4.7,3.2,8.3,6.7,10.8,10.5c2.3-3.3,3.8-6,4.4-8c0.2-0.7,0.3-1.2,0.3-1.6c0-0.5-0.7-0.9-2.2-1.2l-2.7-0.6v-0.3h13v0.3l-1.9,0.3
		c-1.3,0.3-2.2,0.7-2.8,1.1c-0.6,0.5-1.7,1.9-3.2,4.2l-4.4,6.4l0.5,0.8c2.6,4.5,4.2,7,4.8,7.7c0.9,1,2,1.5,3.2,1.5
		c1.1,0,2.5-0.4,4.4-1.1l0.2,0.4c-3.7,1.9-6.9,2.8-9.5,2.8c-0.6,0-1.4-0.1-2.2-0.4c-0.1,0-0.7-0.4-1.6-1.2c-0.2-0.1-0.6-0.8-1.2-1.8
		c0,0-0.3-0.4-0.7-1.2c-0.4-0.8-0.7-1.2-0.7-1.2l-0.8-1.4c-2.1,2.6-4.1,4.4-5.9,5.6c-1.9,1.1-4,1.7-6.4,1.7c-2.8,0-5.3-0.9-7.6-2.7
		c-2.3-1.8-3.4-4.4-3.4-7.8c0-4.6,3.1-8.2,9.2-10.7c-2.7-2-4-4.3-4-6.9c0-2.2,0.8-3.9,2.5-5.3C439.5,200.2,441.5,199.6,443.8,199.6z
		 M444.8,231.3c3,0,5.6-1.5,8-4.4c-1.6-2.7-3.3-4.9-4.9-6.7c-1.7-1.7-4-3.6-7.1-5.5l-0.8-0.5c-3,1.7-4.5,4.2-4.5,7.6
		c0,2.4,0.9,4.6,2.6,6.5C439.8,230.3,442.1,231.3,444.8,231.3z M444.1,210.6l0.9,0.6c0.6-0.4,1.1-1.2,1.5-2.2c0.4-1,0.6-2.2,0.6-3.4
		c0-1-0.2-1.9-0.5-2.7c-0.3-0.7-0.7-1.3-1.2-1.6c-0.5-0.3-0.9-0.6-1.4-0.7c-0.4-0.1-0.8-0.2-1.2-0.2c-1.2,0-2.1,0.4-2.8,1.1
		c-0.6,0.7-0.9,1.6-0.9,2.8C439.2,206.3,440.9,208.4,444.1,210.6z"/>
	<path class="st3" d="M18.9,306.7c-2.5,0-4.6-0.6-6.3-1.9c-1.7-1.3-2.5-2.9-2.5-4.8c0-2.5,1.6-4.7,4.8-6.6c-1-0.2-1.8-0.6-2.4-1.2
		c-0.9-0.9-1.4-2-1.4-3.2c0-1.3,1.4-2.9,4.3-4.7c-1.3-0.8-2.3-1.8-3-3c-0.7-1.2-1.1-2.6-1.1-4c0-2.4,0.9-4.4,2.6-6
		c1.7-1.6,3.9-2.4,6.8-2.4c0.7,0,1.9,0.2,3.6,0.5c1.7,0.3,2.9,0.5,3.4,0.5c1.3,0,3.2-0.3,5.7-1c0.5,0.6,0.8,1.3,0.8,2.1
		c0,0.6-0.2,1.1-0.5,1.4c-0.3,0.3-0.8,0.5-1.3,0.5c-0.8,0-2-0.4-3.7-1.3l-1-0.5l-0.1,0.2c1.7,1.6,2.5,3.5,2.5,5.7
		c0,2.4-0.9,4.4-2.6,6.1c-1.7,1.7-4,2.5-6.9,2.5c-1.7,0-3.2-0.3-4.6-1c-0.9,0.6-1.4,1.4-1.4,2.3c0,1.2,0.9,1.8,2.8,1.8
		c1,0,2,0,3.1-0.1c1,0,2.2-0.1,3.7-0.1c3.6,0,6,0.7,7.5,2.1c1.2,1.2,1.7,2.6,1.7,4.3c0,2.4-1.2,4.8-3.7,7.2
		C26.7,305.2,23.1,306.7,18.9,306.7z M16.3,293.6h-0.6c-0.9,0.9-1.4,2.1-1.4,3.5c0,1.9,0.8,3.6,2.3,4.9c1.5,1.3,3.5,2,6,2
		c2.6,0,4.5-0.5,5.8-1.6c1.3-1.1,2-2.5,2-4.2c0-1.4-0.3-2.4-1-3.1c-0.5-0.5-1.3-0.9-2.2-1.1c-1-0.2-2.6-0.3-4.9-0.3h-3.1
		C18.4,293.6,17.4,293.6,16.3,293.6z M20.5,269.6c-1.3,0-2.3,0.7-3.1,2c-0.8,1.3-1.2,3.1-1.2,5.1c0,2.5,0.4,4.4,1.3,5.9
		c0.9,1.4,2.1,2.2,3.6,2.2c2.6,0,3.8-2.1,3.8-6.4C24.9,272.6,23.4,269.6,20.5,269.6z"/>
	<path class="st3" d="M50.6,268.6c0.8,0,1.5,0.3,1.9,0.8c0.5,0.5,0.7,1.2,0.7,2c0,1.5-0.6,2.8-1.9,3.6c-2.2-1.2-3.7-1.8-4.5-1.8
		s-1.7,0.5-2.9,1.5v17.7c0,0.4,0.1,0.7,0.2,0.9c0.2,0.1,0.6,0.3,1.3,0.3l1.7,0.1v0.4H36.5v-0.4l0.8-0.1c0.7-0.1,1.1-0.2,1.3-0.3
		c0.2-0.1,0.2-0.4,0.2-0.9v-17.2c0-0.9-0.2-1.6-0.6-2.1l-1.7-1.6v-0.2l7.7-2.9l0.2,0.2c-0.1,1.2-0.2,1.9-0.2,2.1l-0.2,3.1l0.2,0.1
		C46.4,270.3,48.5,268.6,50.6,268.6z"/>
	<path class="st3" d="M62.3,272.2c-1.2,0-2.1,0.3-3,0.8l1.2,3.2c0,0.2-0.5,0.5-1.6,0.9c-1.1,0.4-1.9,0.6-2.5,0.6
		c-0.9,0-1.4-0.4-1.4-1.2c0-0.5,0.6-1.4,1.8-2.6c1.3-1.3,2.8-2.4,4.6-3.6c1.8-1.1,3.3-1.6,4.5-1.6c2,0,3.4,0.5,4.4,1.4
		c1.1,1.1,1.6,3.1,1.6,6v12.4c0,1.3,0.3,2.2,0.9,2.8c0.4,0.4,1,0.6,1.7,0.6c0.6,0,1.2-0.2,1.8-0.6l0.2,0.2c-0.5,0.9-1.2,1.6-2.2,2.3
		c-1,0.7-2,1-3,1c-1,0-2-0.3-2.8-1s-1.3-1.5-1.5-2.7l-0.2-0.1l-1,0.9c-1.2,1-2.2,1.7-3.1,2.1s-1.8,0.6-2.9,0.6
		c-1.4,0-2.6-0.5-3.5-1.5c-0.9-1-1.4-2.2-1.4-3.5c0-1.2,0.4-2.2,1.2-3c1-1,3.3-2.1,7-3.5l3.8-1.4v-5.2c0-1.4-0.4-2.5-1.1-3.2
		C65.1,272.6,63.9,272.2,62.3,272.2z M67,290.5v-8.1c-3,1.1-4.8,2-5.5,2.7c-0.7,0.7-1,1.5-1,2.5c0,1.1,0.3,2,1,2.7
		c0.7,0.7,1.5,1.1,2.6,1.1C65.1,291.4,66,291.1,67,290.5z"/>
	<path class="st3" d="M99.6,272.2c1.9,2.3,2.9,5.3,2.9,8.9c0,3.7-1.3,6.9-3.9,9.6c-2.7,2.8-5.9,4.2-9.7,4.2c-1.2,0-2.5-0.1-4-0.4v10
		c0,0.4,0.1,0.7,0.3,0.9c0.2,0.2,0.6,0.3,1.2,0.3l1.7,0.1v0.4H77.3v-0.4l0.8-0.1c0.7-0.1,1.1-0.2,1.3-0.3c0.2-0.1,0.2-0.4,0.2-0.9
		v-29.4c0-0.9-0.2-1.6-0.6-2.1l-1.7-1.6v-0.2l7.7-2.9l0.2,0.2c-0.1,0.5-0.2,1.2-0.2,2.1l-0.1,1.2l0.2,0.1c2.7-2.1,5.2-3.2,7.3-3.2
		C95.3,268.8,97.7,269.9,99.6,272.2z M96.9,282.2c0-3.3-0.8-5.9-2.4-7.8c-1.6-1.9-3.5-2.9-5.6-2.9c-1.4,0-2.8,0.4-4.1,1.2l-0.1,12.6
		c-0.1,5.8,1.7,8.7,5.5,8.7c1.8,0,3.4-1.1,4.7-3.3C96.2,288.6,96.9,285.8,96.9,282.2z"/>
	<path class="st3" d="M121.5,268.8c1.5,0,2.6,0.4,3.5,1.3c0.6,0.6,1.1,1.3,1.3,2c0.2,0.7,0.3,1.8,0.3,3.3v17.2
		c0,0.5,0.4,0.8,1.1,0.9l1.2,0.2v0.4h-9.8v-0.4l1.2-0.2c0.7-0.1,1.1-0.4,1.1-0.9V279c0-3.1-0.4-5-1.1-5.7c-0.7-0.7-1.8-1.1-3.3-1.1
		c-1.3,0-2.8,0.5-4.6,1.6v18.8c0,0.5,0.4,0.8,1.1,0.9l1.2,0.2v0.4h-9.8v-0.4l1.2-0.2c0.7-0.1,1.1-0.4,1.1-0.9v-30
		c0-0.9-0.2-1.6-0.6-2.1l-1.7-1.6v-0.2l7.5-2.9l0.2,0.2c-0.1,0.6-0.2,1.6-0.2,2.8V273l0.2,0.1c1.9-1.5,3.6-2.6,4.9-3.3
		C118.9,269.2,120.2,268.8,121.5,268.8z"/>
	<path class="st3" d="M139.4,271.4v21c0,0.4,0.1,0.7,0.2,0.9c0.2,0.1,0.6,0.3,1.3,0.3l0.8,0.1v0.4h-9.8v-0.4l0.8-0.1
		c0.7-0.1,1.1-0.2,1.3-0.3c0.2-0.1,0.2-0.4,0.2-0.9v-17.2c0-0.9-0.2-1.6-0.6-2.1l-1.7-1.6v-0.2l7.5-2.9l0.2,0.2
		C139.4,269.3,139.4,270.2,139.4,271.4z M133.8,260.5c0-0.9,0.3-1.7,1-2.4c0.7-0.7,1.5-1,2.5-1c0.9,0,1.6,0.3,2.2,0.9
		c0.6,0.6,0.9,1.4,0.9,2.3c0,0.9-0.3,1.7-0.9,2.3c-0.6,0.6-1.4,0.9-2.4,0.9c-0.9,0-1.7-0.3-2.3-0.9
		C134.1,262.1,133.8,261.4,133.8,260.5z"/>
	<path class="st3" d="M158.3,291.5c2.2,0,4.3-0.8,6.2-2.4l0.2,0.3c-2.4,3.7-5.6,5.6-9.5,5.6c-3.4,0-6.1-1.2-8.3-3.7
		c-2.1-2.4-3.1-5.4-3.1-9c0-3.7,1.2-6.8,3.7-9.5c2.5-2.6,5.7-3.9,9.7-3.9c2.3,0,4.1,0.4,5.4,1.1c1.4,0.7,2,1.7,2,2.9
		c0,0.6-0.3,1.3-0.8,1.8c-0.5,0.6-1.1,0.8-1.6,0.8c-0.5,0-1.2-0.4-1.9-1.4l-2.5-3c-0.4-0.5-0.8-0.8-1-1c-0.2-0.1-0.5-0.2-0.9-0.2
		c-1.7,0-3.2,0.9-4.6,2.8c-1.5,1.8-2.3,4.4-2.3,7.7c0,3.6,0.9,6.3,2.8,8.2C153.8,290.5,155.9,291.5,158.3,291.5z"/>
	<path class="st3" d="M189.4,268.8c1.2,0,2.5,0.1,4,0.4v-6.6c0-0.9-0.2-1.6-0.6-2.1l-1.7-1.6v-0.2l7.5-2.9l0.2,0.2
		c-0.1,0.6-0.2,1.6-0.2,2.8v32.6c0,0.6,0.1,1.1,0.3,1.3c0.2,0.2,0.6,0.3,1.3,0.2l1.4-0.1l0.1,0.4l-8.5,2l-0.2-0.2
		c0.1-1.2,0.2-1.9,0.2-2.1l0.1-1.2l-0.2-0.1c-2.7,2.1-5.2,3.2-7.3,3.2c-2.8,0-5.2-1.1-7.1-3.4c-1.9-2.3-2.9-5.2-2.9-8.9
		c0-3.6,1.3-6.8,4-9.7C182.5,270.2,185.7,268.8,189.4,268.8z M188.1,269.6c-1.8,0-3.3,1.1-4.6,3.2c-1.4,2.2-2.1,5.1-2.1,8.6
		c0,3.3,0.8,5.9,2.4,7.8c1.6,1.9,3.4,2.9,5.5,2.9c1.4,0,2.8-0.4,4.1-1.2l0.1-12.6C193.7,272.5,191.8,269.6,188.1,269.6z"/>
	<path class="st3" d="M215.6,268.8c2.7,0,5,0.8,6.8,2.3c1.8,1.5,2.7,3.3,2.7,5.2c0,0.6-0.1,1.1-0.2,1.5l-16-0.1
		c-0.1,0.6-0.1,1.5-0.1,2.5c0,3.3,0.8,5.9,2.4,7.7c1.6,1.8,3.6,2.7,6.2,2.7c3.3,0,5.9-1.2,7.9-3.5l0.2,0.2c-0.9,2.3-2.3,4.1-4.2,5.5
		c-1.9,1.4-4,2.1-6.2,2.1c-3.5,0-6.3-1.2-8.3-3.7c-2.1-2.4-3.1-5.3-3.1-8.7c0-3.8,1.1-7,3.3-9.7C209.1,270.1,212,268.8,215.6,268.8z
		 M211.6,271.4c-1.3,1.3-2.1,3.2-2.5,5.5l5.7-0.1c3.1-0.1,4.9-0.2,5.2-0.4c0.2-1.8-0.2-3.3-1-4.6c-0.9-1.3-2-2-3.5-2
		C214,269.7,212.8,270.3,211.6,271.4z"/>
	<path class="st3" d="M240.6,290.1c0-1.1-0.4-2.1-1.1-2.9c-0.7-0.8-2-1.9-3.9-3.1c-2.3-1.5-4-2.9-4.9-4.1c-0.9-1.2-1.4-2.6-1.4-4.2
		c0-2,0.8-3.6,2.4-4.9c1.6-1.3,3.6-1.9,6.1-1.9c2.3,0,4.1,0.4,5.6,1.1c0.3,1.2,0.4,2.8,0.4,5l-0.5,0.1c-1.8-3.6-3.8-5.3-6-5.3
		c-1.2,0-2,0.3-2.7,0.9c-0.6,0.6-0.9,1.5-0.9,2.5c0,1.1,0.3,2,1,2.8c0.7,0.8,1.8,1.7,3.5,2.8c2.7,1.7,4.5,3.1,5.4,4.3
		c0.9,1.3,1.4,2.7,1.4,4.3c0,2.2-0.9,3.9-2.6,5.3c-1.7,1.4-3.9,2.1-6.5,2.1c-2.4,0-4.7-0.4-6.6-1.1c-0.6-2.6-0.9-4.9-0.9-6.9
		l0.5-0.1c2.2,4.8,4.9,7.2,8,7.2c1.1,0,2-0.3,2.7-1C240.2,292.2,240.6,291.2,240.6,290.1z"/>
	<path class="st3" d="M255.1,271.4v21c0,0.4,0.1,0.7,0.2,0.9c0.2,0.1,0.6,0.3,1.3,0.3l0.8,0.1v0.4h-9.8v-0.4l0.8-0.1
		c0.7-0.1,1.1-0.2,1.3-0.3c0.2-0.1,0.2-0.4,0.2-0.9v-17.2c0-0.9-0.2-1.6-0.6-2.1l-1.7-1.6v-0.2l7.5-2.9l0.2,0.2
		C255.1,269.3,255.1,270.2,255.1,271.4z M249.5,260.5c0-0.9,0.3-1.7,1-2.4c0.7-0.7,1.5-1,2.5-1c0.9,0,1.6,0.3,2.2,0.9
		c0.6,0.6,0.9,1.4,0.9,2.3c0,0.9-0.3,1.7-0.9,2.3c-0.6,0.6-1.4,0.9-2.4,0.9c-0.9,0-1.7-0.3-2.3-0.9
		C249.8,262.1,249.5,261.4,249.5,260.5z"/>
	<path class="st3" d="M268.2,306.7c-2.5,0-4.6-0.6-6.3-1.9c-1.7-1.3-2.5-2.9-2.5-4.8c0-2.5,1.6-4.7,4.8-6.6c-1-0.2-1.8-0.6-2.4-1.2
		c-0.9-0.9-1.3-2-1.3-3.2c0-1.3,1.4-2.9,4.3-4.7c-1.3-0.8-2.3-1.8-3-3c-0.7-1.2-1.1-2.6-1.1-4c0-2.4,0.9-4.4,2.6-6
		c1.7-1.6,3.9-2.4,6.8-2.4c0.7,0,1.9,0.2,3.6,0.5c1.7,0.3,2.9,0.5,3.4,0.5c1.3,0,3.2-0.3,5.7-1c0.5,0.6,0.8,1.3,0.8,2.1
		c0,0.6-0.2,1.1-0.5,1.4c-0.3,0.3-0.8,0.5-1.3,0.5c-0.8,0-2-0.4-3.7-1.3l-1-0.5l-0.1,0.2c1.7,1.6,2.5,3.5,2.5,5.7
		c0,2.4-0.9,4.4-2.6,6.1c-1.7,1.7-4,2.5-6.9,2.5c-1.7,0-3.2-0.3-4.6-1c-0.9,0.6-1.3,1.4-1.3,2.3c0,1.2,0.9,1.8,2.8,1.8
		c1,0,2,0,3.1-0.1c1,0,2.2-0.1,3.7-0.1c3.6,0,6,0.7,7.5,2.1c1.2,1.2,1.7,2.6,1.7,4.3c0,2.4-1.2,4.8-3.7,7.2
		C276,305.2,272.4,306.7,268.2,306.7z M265.6,293.6h-0.6c-0.9,0.9-1.4,2.1-1.4,3.5c0,1.9,0.8,3.6,2.3,4.9c1.5,1.3,3.5,2,6,2
		c2.6,0,4.5-0.5,5.8-1.6c1.3-1.1,2-2.5,2-4.2c0-1.4-0.3-2.4-1-3.1c-0.5-0.5-1.3-0.9-2.2-1.1c-1-0.2-2.6-0.3-4.9-0.3h-3.1
		C267.6,293.6,266.7,293.6,265.6,293.6z M269.8,269.6c-1.3,0-2.3,0.7-3.1,2c-0.8,1.3-1.2,3.1-1.2,5.1c0,2.5,0.4,4.4,1.3,5.9
		c0.9,1.4,2.1,2.2,3.6,2.2c2.6,0,3.8-2.1,3.8-6.4C274.2,272.6,272.7,269.6,269.8,269.6z"/>
	<path class="st3" d="M302.4,268.8c1.5,0,2.6,0.4,3.5,1.3c0.6,0.6,1.1,1.3,1.3,2c0.2,0.7,0.3,1.8,0.3,3.3v17c0,0.4,0.1,0.7,0.2,0.9
		c0.2,0.1,0.6,0.3,1.3,0.3l0.8,0.1v0.4H300v-0.4l0.8-0.1c0.7-0.1,1.1-0.2,1.3-0.3c0.2-0.1,0.2-0.4,0.2-0.9V279c0-3.1-0.4-5-1.1-5.7
		c-0.7-0.7-1.8-1.1-3.3-1.1c-1.3,0-2.8,0.5-4.6,1.6v18.6c0,0.4,0.1,0.7,0.2,0.9c0.2,0.1,0.6,0.3,1.3,0.3l0.8,0.1v0.4h-9.8v-0.4
		l0.8-0.1c0.7-0.1,1.1-0.2,1.3-0.3c0.2-0.1,0.2-0.4,0.2-0.9v-17.2c0-0.9-0.2-1.6-0.6-2.1l-1.7-1.6v-0.2l7.7-2.9l0.2,0.2
		c-0.1,1.2-0.2,1.9-0.2,2.1l-0.1,2.2l0.2,0.1c1.9-1.5,3.5-2.6,4.8-3.2C299.7,269.2,301,268.8,302.4,268.8z"/>
	<path class="st3" d="M324.2,268.8c2.7,0,5,0.8,6.8,2.3c1.8,1.5,2.7,3.3,2.7,5.2c0,0.6-0.1,1.1-0.2,1.5l-16-0.1
		c-0.1,0.6-0.1,1.5-0.1,2.5c0,3.3,0.8,5.9,2.4,7.7c1.6,1.8,3.6,2.7,6.2,2.7c3.3,0,5.9-1.2,7.9-3.5l0.2,0.2c-0.9,2.3-2.3,4.1-4.2,5.5
		s-4,2.1-6.2,2.1c-3.5,0-6.3-1.2-8.3-3.7c-2.1-2.4-3.1-5.3-3.1-8.7c0-3.8,1.1-7,3.3-9.7C317.7,270.1,320.6,268.8,324.2,268.8z
		 M320.2,271.4c-1.3,1.3-2.1,3.2-2.5,5.5l5.7-0.1c3.1-0.1,4.9-0.2,5.2-0.4c0.2-1.8-0.2-3.3-1-4.6c-0.9-1.3-2-2-3.5-2
		C322.6,269.7,321.3,270.3,320.2,271.4z"/>
	<path class="st3" d="M350.4,268.6c0.8,0,1.5,0.3,1.9,0.8c0.5,0.5,0.7,1.2,0.7,2c0,1.5-0.6,2.8-1.9,3.6c-2.2-1.2-3.7-1.8-4.5-1.8
		s-1.7,0.5-2.9,1.5v17.7c0,0.4,0.1,0.7,0.2,0.9c0.2,0.1,0.6,0.3,1.3,0.3l1.7,0.1v0.4h-10.7v-0.4l0.8-0.1c0.7-0.1,1.1-0.2,1.3-0.3
		c0.2-0.1,0.2-0.4,0.2-0.9v-17.2c0-0.9-0.2-1.6-0.6-2.1l-1.7-1.6v-0.2l7.7-2.9l0.2,0.2c-0.1,1.2-0.2,1.9-0.2,2.1l-0.2,3.1l0.2,0.1
		C346.2,270.3,348.3,268.6,350.4,268.6z"/>
</g>
<g>
</g>
<g>
</g>
<g>
</g>
<g>
</g>
<g>
</g>
<g>
</g>
</svg>
